<?xml version="1.0" encoding="UTF-8" standalone="no"?>
<!DOCTYPE svg PUBLIC "-//W3C//DTD SVG 1.1//EN" "http://www.w3.org/Graphics/SVG/1.1/DTD/svg11.dtd">
<svg width="100%" height="100%" viewBox="0 0 702 459" version="1.1" xmlns="http://www.w3.org/2000/svg" xmlns:xlink="http://www.w3.org/1999/xlink" xml:space="preserve" xmlns:serif="http://www.serif.com/" style="fill-rule:evenodd;clip-rule:evenodd;stroke-linejoin:round;stroke-miterlimit:2;">
    <rect id="Artboard1" x="0" y="0" width="702" height="459" style="fill:none;"/>
    <g id="Artboard11" serif:id="Artboard1">
        <g transform="matrix(0.132632,0,0,0.132632,-119.604,-54.8488)">
            <g transform="matrix(4.44565,0,0,4.44565,-2122.98,-8945.45)">
                <path d="M855.476,2365.57L817.097,2558.05C812.214,2582.86 809.773,2602.29 809.773,2616.35C809.773,2631 815.925,2642.43 828.23,2650.63C806.941,2657.27 790.339,2660.59 778.425,2660.59C758.503,2660.59 748.542,2652.59 748.542,2636.57C748.542,2618.8 754.402,2587.25 766.12,2541.94L830.866,2292.33L818.855,2255.42C805.183,2214.21 791.902,2189.11 779.011,2180.12C797.566,2168.21 814.07,2162.25 828.523,2162.25C839.265,2162.25 848.493,2170.7 856.208,2187.6C863.923,2204.49 878.034,2247.51 898.542,2316.65C902.644,2330.51 906.062,2341.45 908.796,2349.46L914.07,2364.11C943.757,2450.63 969.636,2493.89 991.706,2493.89C1015.73,2493.89 1049.18,2458.88 1092.05,2388.86C1134.92,2318.85 1158.21,2261.28 1161.92,2216.16C1183.6,2208.93 1199.62,2205.32 1209.97,2205.32C1229.11,2205.32 1238.68,2215.87 1238.68,2236.96C1238.68,2243.99 1236.43,2263.52 1231.94,2295.55C1227.64,2324.66 1224.62,2347.99 1222.86,2365.57L1202.64,2556.59C1201.28,2570.07 1200.59,2583.15 1200.59,2595.85C1200.59,2634.71 1208.4,2658.93 1224.03,2668.5C1203.98,2682.57 1186.85,2689.6 1172.64,2689.6C1149.48,2689.6 1137.9,2665.47 1137.9,2617.23C1137.9,2597.9 1139.36,2574.26 1142.29,2546.34L1167.78,2304.05C1144.54,2373.97 1114.56,2433.49 1077.84,2482.61C1041.12,2531.74 1008.31,2556.3 979.402,2556.3C956.745,2556.3 934.382,2539.35 912.312,2505.47C890.241,2471.58 871.296,2424.95 855.476,2365.57Z" style="fill-rule:nonzero;"/>
                <path d="M1417.39,2365.57L1379.01,2558.05C1374.13,2582.86 1371.69,2602.29 1371.69,2616.35C1371.69,2631 1377.84,2642.43 1390.14,2650.63C1368.86,2657.27 1352.25,2660.59 1340.34,2660.59C1320.42,2660.59 1310.46,2652.59 1310.46,2636.57C1310.46,2618.8 1316.32,2587.25 1328.03,2541.94L1392.78,2292.33L1380.77,2255.42C1367.1,2214.21 1353.82,2189.11 1340.92,2180.12C1359.48,2168.21 1375.98,2162.25 1390.44,2162.25C1401.18,2162.25 1410.41,2170.7 1418.12,2187.6C1425.84,2204.49 1439.95,2247.51 1460.46,2316.65C1464.56,2330.51 1467.98,2341.45 1470.71,2349.46L1475.98,2364.11C1505.67,2450.63 1531.55,2493.89 1553.62,2493.89C1577.64,2493.89 1611.09,2458.88 1653.96,2388.86C1696.83,2318.85 1720.12,2261.28 1723.84,2216.16C1745.52,2208.93 1761.53,2205.32 1771.88,2205.32C1791.02,2205.32 1800.59,2215.87 1800.59,2236.96C1800.59,2243.99 1798.35,2263.52 1793.86,2295.55C1789.56,2324.66 1786.53,2347.99 1784.77,2365.57L1764.56,2556.59C1763.19,2570.07 1762.51,2583.15 1762.51,2595.85C1762.51,2634.71 1770.32,2658.93 1785.94,2668.5C1765.89,2682.57 1748.77,2689.6 1734.56,2689.6C1711.39,2689.6 1699.81,2665.47 1699.81,2617.23C1699.81,2597.9 1701.28,2574.26 1704.21,2546.34L1729.69,2304.05C1706.45,2373.97 1676.47,2433.49 1639.75,2482.61C1603.03,2531.74 1570.22,2556.3 1541.32,2556.3C1518.66,2556.3 1496.3,2539.35 1474.23,2505.47C1452.15,2471.58 1433.21,2424.95 1417.39,2365.57Z" style="fill-rule:nonzero;"/>
            </g>
            <g transform="matrix(0.958545,0,0,0.958545,-677.964,-300.961)">
                <path d="M1954.82,4023.16L1982.82,4023.16L1982.82,3803.56L2081.22,4023.16L2101.62,4023.16L2200.02,3802.76L2200.02,4023.16L2228.02,4023.16L2228.02,3747.16L2198.02,3747.16L2091.22,3986.36L1984.42,3747.16L1954.82,3747.16L1954.82,4023.16Z" style="fill-rule:nonzero;"/>
                <path d="M2444.82,3825.56C2485.22,3825.56 2522.02,3851.16 2520.82,3901.96L2367.22,3901.96C2370.42,3851.16 2405.22,3825.56 2444.82,3825.56ZM2546.02,3953.96L2516.42,3953.96C2508.42,3983.16 2483.22,4002.76 2446.02,4002.76C2405.22,4002.76 2369.62,3975.96 2367.22,3924.76L2548.42,3924.76C2549.22,3917.16 2549.22,3911.56 2549.22,3902.76C2549.22,3847.16 2510.02,3801.56 2446.02,3801.56C2383.22,3801.56 2338.82,3844.36 2338.82,3913.96C2338.82,3983.16 2384.02,4026.36 2446.02,4026.36C2500.82,4026.36 2536.02,3995.16 2546.02,3953.96Z" style="fill-rule:nonzero;"/>
                <path d="M2647.62,3913.56C2647.62,3981.96 2692.02,4026.36 2752.02,4026.36C2795.22,4026.36 2825.62,4003.16 2838.42,3974.36L2838.42,4023.16L2866.42,4023.16L2866.42,3727.16L2838.42,3727.16L2838.42,3851.96C2824.42,3823.16 2791.62,3801.56 2752.42,3801.56C2692.02,3801.56 2647.62,3845.16 2647.62,3913.56ZM2838.42,3913.96C2838.42,3968.36 2802.02,4001.96 2757.22,4001.96C2711.22,4001.96 2676.02,3968.76 2676.02,3913.56C2676.02,3857.96 2711.22,3825.96 2757.22,3825.96C2802.02,3825.96 2838.42,3859.56 2838.42,3913.96Z" style="fill-rule:nonzero;"/>
                <path d="M2990.42,4023.16L3018.42,4023.16L3018.42,3804.76L2990.42,3804.76L2990.42,4023.16ZM3004.42,3763.56C3015.62,3763.56 3024.82,3754.76 3024.82,3742.76C3024.82,3730.76 3015.62,3722.36 3004.42,3722.36C2993.22,3722.36 2984.02,3730.76 2984.02,3742.76C2984.02,3754.76 2993.22,3763.56 3004.42,3763.56Z" style="fill-rule:nonzero;"/>
                <path d="M3129.22,3913.96C3129.22,3983.16 3173.62,4026.36 3235.22,4026.36C3290.02,4026.36 3325.62,3995.56 3335.62,3951.96L3305.62,3951.96C3298.02,3983.96 3272.02,4002.76 3235.22,4002.76C3192.42,4002.76 3157.62,3973.16 3157.62,3913.96C3157.62,3854.76 3192.42,3825.56 3235.22,3825.56C3272.02,3825.56 3298.42,3844.76 3305.62,3875.96L3335.62,3875.96C3325.62,3830.76 3290.02,3801.56 3235.22,3801.56C3173.62,3801.56 3129.22,3844.76 3129.22,3913.96Z" style="fill-rule:nonzero;"/>
                <path d="M3447.22,4023.16L3475.22,4023.16L3475.22,3804.76L3447.22,3804.76L3447.22,4023.16ZM3461.22,3763.56C3472.42,3763.56 3481.62,3754.76 3481.62,3742.76C3481.62,3730.76 3472.42,3722.36 3461.22,3722.36C3450.02,3722.36 3440.82,3730.76 3440.82,3742.76C3440.82,3754.76 3450.02,3763.56 3461.22,3763.56Z" style="fill-rule:nonzero;"/>
                <path d="M3762.42,4023.16L3790.02,4023.16L3790.02,3895.16C3790.02,3831.16 3750.82,3800.76 3701.22,3800.76C3668.82,3800.76 3640.82,3814.76 3626.82,3841.96L3626.82,3804.76L3598.82,3804.76L3598.82,4023.16L3626.82,4023.16L3626.82,3903.96C3626.82,3850.76 3655.22,3825.16 3696.02,3825.16C3736.02,3825.16 3762.42,3849.96 3762.42,3898.36L3762.42,4023.16Z" style="fill-rule:nonzero;"/>
                <path d="M3899.22,3913.56C3899.22,3981.96 3943.62,4026.36 4003.22,4026.36C4046.82,4026.36 4077.22,4002.76 4090.02,3974.76L4090.02,4023.16L4118.02,4023.16L4118.02,3804.76L4090.02,3804.76L4090.02,3852.76C4077.62,3825.16 4047.62,3801.56 4003.62,3801.56C3943.62,3801.56 3899.22,3845.16 3899.22,3913.56ZM4090.02,3913.96C4090.02,3968.36 4053.62,4001.96 4008.82,4001.96C3962.82,4001.96 3927.62,3968.76 3927.62,3913.56C3927.62,3857.96 3962.82,3825.96 4008.82,3825.96C4053.62,3825.96 4090.02,3859.56 4090.02,3913.96Z" style="fill-rule:nonzero;"/>
                <path d="M4398.82,3913.56C4398.82,3981.96 4443.22,4026.36 4503.22,4026.36C4546.42,4026.36 4576.82,4003.16 4589.62,3974.36L4589.62,4023.16L4617.62,4023.16L4617.62,3727.16L4589.62,3727.16L4589.62,3851.96C4575.62,3823.16 4542.82,3801.56 4503.62,3801.56C4443.22,3801.56 4398.82,3845.16 4398.82,3913.56ZM4589.62,3913.96C4589.62,3968.36 4553.22,4001.96 4508.42,4001.96C4462.42,4001.96 4427.22,3968.76 4427.22,3913.56C4427.22,3857.96 4462.42,3825.96 4508.42,3825.96C4553.22,3825.96 4589.62,3859.56 4589.62,3913.96Z" style="fill-rule:nonzero;"/>
                <path d="M4728.82,3913.56C4728.82,3981.96 4773.22,4026.36 4832.82,4026.36C4876.42,4026.36 4906.82,4002.76 4919.62,3974.76L4919.62,4023.16L4947.62,4023.16L4947.62,3804.76L4919.62,3804.76L4919.62,3852.76C4907.22,3825.16 4877.22,3801.56 4833.22,3801.56C4773.22,3801.56 4728.82,3845.16 4728.82,3913.56ZM4919.62,3913.96C4919.62,3968.36 4883.22,4001.96 4838.42,4001.96C4792.42,4001.96 4757.22,3968.76 4757.22,3913.56C4757.22,3857.96 4792.42,3825.96 4838.42,3825.96C4883.22,3825.96 4919.62,3859.56 4919.62,3913.96Z" style="fill-rule:nonzero;"/>
                <path d="M5241.22,4023.16L5269.22,4023.16L5269.22,3803.56L5367.62,4023.16L5388.02,4023.16L5486.42,3802.76L5486.42,4023.16L5514.42,4023.16L5514.42,3747.16L5484.42,3747.16L5377.62,3986.36L5270.82,3747.16L5241.22,3747.16L5241.22,4023.16Z" style="fill-rule:nonzero;"/>
                <path d="M5827.22,3804.76L5799.22,3804.76L5799.22,3923.56C5799.22,3976.76 5770.82,4002.36 5730.02,4002.36C5690.02,4002.36 5663.62,3977.56 5663.62,3929.16L5663.62,3804.76L5636.02,3804.76L5636.02,3932.36C5636.02,3996.36 5675.22,4026.76 5724.82,4026.76C5757.22,4026.76 5786.02,4012.36 5799.22,3984.76L5799.22,4023.16L5827.22,4023.16L5827.22,3804.76Z" style="fill-rule:nonzero;"/>
                <rect x="5951.22" y="3727.16" width="28" height="296" style="fill-rule:nonzero;"/>
                <path d="M6102.82,4023.16L6130.82,4023.16L6130.82,3903.96C6130.82,3850.76 6159.22,3825.16 6200.02,3825.16C6240.02,3825.16 6266.42,3849.96 6266.42,3898.36L6266.42,4023.16L6294.02,4023.16L6294.02,3895.16C6294.02,3831.16 6255.22,3800.76 6206.82,3800.76C6173.62,3800.76 6144.82,3815.16 6130.82,3841.96L6130.82,3727.16L6102.82,3727.16L6102.82,4023.16Z" style="fill-rule:nonzero;"/>
                <path d="M6509.22,3825.56C6549.62,3825.56 6586.42,3851.16 6585.22,3901.96L6431.62,3901.96C6434.82,3851.16 6469.62,3825.56 6509.22,3825.56ZM6610.42,3953.96L6580.82,3953.96C6572.82,3983.16 6547.62,4002.76 6510.42,4002.76C6469.62,4002.76 6434.02,3975.96 6431.62,3924.76L6612.82,3924.76C6613.62,3917.16 6613.62,3911.56 6613.62,3902.76C6613.62,3847.16 6574.42,3801.56 6510.42,3801.56C6447.62,3801.56 6403.22,3844.36 6403.22,3913.96C6403.22,3983.16 6448.42,4026.36 6510.42,4026.36C6565.22,4026.36 6600.42,3995.16 6610.42,3953.96Z" style="fill-rule:nonzero;"/>
                <path d="M6752.82,3901.16C6752.82,3846.36 6783.62,3829.96 6820.02,3829.96L6827.62,3829.96L6827.62,3800.76C6790.02,3800.76 6764.82,3816.76 6752.82,3843.56L6752.82,3804.76L6724.82,3804.76L6724.82,4023.16L6752.82,4023.16L6752.82,3901.16Z" style="fill-rule:nonzero;"/>
            </g>
        </g>
    </g>
</svg>
